<svg xmlns="http://www.w3.org/2000/svg" viewBox="0 0 64 64" fill="none">
  <rect width="64" height="64" rx="16" fill="#FFF5E1" />
  <path
    d="M15 28C15 19.716 22.611 13 32 13C41.389 13 49 19.716 49 28V30H15V28Z"
    fill="#F1A63C"
  />
  <path
    d="M18.5 31H45.5C48.538 31 51 33.462 51 36.5C51 39.538 48.538 42 45.5 42H18.5C15.462 42 13 39.538 13 36.5C13 33.462 15.462 31 18.5 31Z"
    fill="#68B84F"
  />
  <path
    d="M20 36H44C47.314 36 50 38.686 50 42C50 45.314 47.314 48 44 48H20C16.686 48 14 45.314 14 42C14 38.686 16.686 36 20 36Z"
    fill="#5B341B"
  />
  <path d="M23 34H41L36 39H18L23 34Z" fill="#FFD24A" />
  <path
    d="M18 44H46C48.761 44 51 46.239 51 49C51 51.761 48.761 54 46 54H18C15.239 54 13 51.761 13 49C13 46.239 15.239 44 18 44Z"
    fill="#E58C2E"
  />
  <g fill="#FFFDF3">
    <rect x="23" y="19" width="4" height="2" rx="1" transform="rotate(-18 23 19)" />
    <rect x="30" y="17" width="4" height="2" rx="1" transform="rotate(8 30 17)" />
    <rect x="37" y="19" width="4" height="2" rx="1" transform="rotate(-12 37 19)" />
    <rect x="27" y="23" width="4" height="2" rx="1" transform="rotate(14 27 23)" />
    <rect x="35" y="24" width="4" height="2" rx="1" transform="rotate(-10 35 24)" />
  </g>
</svg>
